<?xml version="1.0" encoding="UTF-8" standalone="no"?><!DOCTYPE svg PUBLIC "-//W3C//DTD SVG 1.1//EN" "http://www.w3.org/Graphics/SVG/1.1/DTD/svg11.dtd"><svg width="100%" height="100%" viewBox="0 0 4000 4000" version="1.1" xmlns="http://www.w3.org/2000/svg" xmlns:xlink="http://www.w3.org/1999/xlink" xml:space="preserve" xmlns:serif="http://www.serif.com/" style="fill-rule:evenodd;clip-rule:evenodd;stroke-linejoin:round;stroke-miterlimit:2;"><g><path d="M774.94,2602.771c15.513,22.788 66.97,-7.225 87.533,-14.567c60.26,-21.493 120.769,-33.867 183.504,-45.328c25.612,-4.667 53.101,-19.5 79.428,-17.656c59.911,4.202 129.738,32.223 186.095,52.453c141.116,50.626 277.482,115.072 419.561,163.14c49.912,16.892 99.409,35.462 149.105,53.002c24.798,8.753 58.765,16.344 74.611,38.983c3.355,18.619 6.445,54.247 -3.571,70.923c-5.132,8.554 -17.241,12.208 -20.53,21.825c-3.654,10.68 14.766,16.277 -0.017,24.051c-9.218,4.867 -29.466,0.664 -39.299,-0.266c-32.704,-3.089 -65.11,-3.554 -97.1,-11.826c-105.986,-27.439 -214.082,-46.092 -320.6,-70.774c-32.605,-7.557 -65.592,-9.135 -98.329,-14.849c-16.975,-2.973 -36.043,-9.899 -49.53,5.398c-10.663,41.092 26.343,60.094 57.885,75.059c66.455,31.542 132.794,62.32 201.077,89.726c81.57,32.738 183.205,88.945 273.379,84.626c65.841,-3.156 137.445,-46.956 195.396,-76.155c82.666,-41.657 168.937,-73.996 252.766,-112.614c85.473,-39.382 171.728,-81.354 259.277,-115.77c17.955,-7.043 100.705,-24.35 68.93,-51.39c25.845,-17.706 74.096,-24.383 101.12,-6.76c16.859,19.716 17.54,46.69 6.793,69.678c-19.832,23.885 -46.939,43.036 -73.813,58.317c8.072,-14.617 -13.504,-20.081 -23.835,-14.068c-38.917,22.639 -76.87,49.763 -115.77,73.299c-28.967,19.168 -58.25,38.269 -88.496,55.36c-13.786,7.79 -37.638,14.068 -45.66,28.967c-6.278,11.627 13.603,23.569 8.421,31.625c-5.448,2.907 -10.265,6.411 -15.713,9.335c-12.291,-15.962 -18.237,8.072 -25.728,15.68c-8.421,5.348 -16.726,10.564 -25.413,15.497c-14.434,6.395 -19.649,-16.444 -32.655,-13.686c-38.169,8.106 -63.997,34.864 -95.888,53.699c-9.036,5.332 -24.848,9.252 -29.299,20.081c-4.534,11.062 5.365,15.812 9.318,23.852c-27.489,18.503 -58.665,32.92 -87.633,48.999c-9.567,5.298 -27.987,10.531 -35.196,18.619c-6.146,6.926 -1.312,13.686 -1.727,21.543c-58.2,26.193 -118.693,46.623 -175.099,77.218c-0.133,5.298 29.515,-0.249 34.831,-1.81c34.332,-10.032 70.292,-30.429 102.366,-46.324c61.041,-30.213 131.981,-60.958 195.828,-82.301c19.633,-6.577 55.858,-20.978 29.233,-41.458c17.108,-17.723 46.391,-28.685 68.017,-40.295c37.405,-20.048 73.664,-42.056 110.72,-62.685c121.948,-67.851 239.279,-145.933 362.889,-210.461c13.919,32.688 38.551,12.839 62.369,3.671c22.822,-4.069 42.155,17.191 25.562,38.684c-9.75,12.623 -34.299,26.509 -47.637,36.442c-72.966,54.314 -158.789,95.007 -239.213,136.93c-97.981,51.075 -191.36,111.086 -286.7,166.811c-115.255,67.369 -235.974,128.21 -354.883,188.454c-41.358,20.945 -86.952,35.661 -129.024,53.965c-10.58,4.601 -20.862,21.975 -32.937,21.493c-6.993,-0.266 -10.929,-8.687 -18.105,-9.634c-8.737,-1.163 -13.255,12.574 -21.493,10.132c-77.268,-22.838 -152.344,-46.391 -229.347,-73.299c-70.076,-24.499 -142.71,-41.308 -213.584,-63.316c-227.304,-70.541 -462.347,-135.469 -695.149,-185.032c-130.934,-27.888 -265.722,-40.279 -396.025,-68.997c-14.533,-53.965 -39.099,-104.89 -53.898,-158.855c-37.139,-135.452 -61.306,-268.944 -66.306,-409.279c156.413,53.334 313.691,113.062 482.229,103.611c68.914,-3.87 131.233,-23.619 196.958,-41.69Z" style="fill:#b8b7b4;"/></g><g><path d="M1615.74,14.765c5.531,0.698 28.087,14.218 20.961,21.211c-8.454,8.321 -31.193,2.973 -41.574,2.658c-33.302,-0.997 -70.541,5.913 -103.113,12.374c-103.312,20.496 -212.637,24.616 -314.272,51.739c-55.46,14.799 -112.149,24.3 -167.509,39.514c-186.776,51.374 -364.417,122.181 -537.357,208.85c-57.852,28.984 -113.295,60.924 -167.841,95.688c-26.991,17.191 -61.356,34.299 -79.793,61.14c-12.972,141.415 -12.64,284.408 -18.005,426.537c-13.587,360.331 -5.415,717.123 63.582,1072.056c23.254,119.673 51.291,234.595 87.35,351.096c16.925,54.679 34.349,123.244 65.293,171.562c23.636,3.289 47.57,1.844 71.322,4.252c65.293,6.611 149.587,20.447 207.97,-17.822c-1.412,-17.174 -10.796,-24.549 -16.759,-39.647c-16.842,-42.77 -40.063,-82.916 -56.955,-125.935c-39.016,-99.359 -67.369,-202.804 -93.197,-306.299c-77.733,-311.399 -85.191,-634.523 -79.727,-954.011c1.711,-99.226 2.89,-198.652 8.554,-297.679c2.442,-42.787 -2.973,-96.984 19.5,-135.153c53.932,-60.044 141.083,-90.739 212.338,-124.324c181.345,-85.457 387.537,-143.69 586.837,-167.226c10.497,-1.229 24.35,9.634 31.359,7.607c28.087,-8.139 54.878,-5.265 84.892,-8.87c-76.338,22.074 -162.327,25.247 -240.724,41.591c-150.384,31.342 -294.606,81.819 -435.855,141.398c-51.457,21.709 -101.153,47.354 -150.019,74.328c-25.38,14.002 -56.855,28.851 -74.245,52.52c-10.182,46.524 -6.278,101.618 -7.873,149.354c-2.99,88.845 -6.976,177.342 -8.056,266.253c-3.837,317.245 -1.113,641.25 79.361,950.241c28.619,109.94 58.084,222.238 103.495,326.762c15.098,34.731 28.984,70.226 46.407,103.894c8.986,17.39 26.31,40.129 28.452,59.679c-28.021,2.06 -53.965,14.151 -81.653,19.384c-78.813,14.932 -174.983,22.539 -252.866,-2.076c-30.977,-21.493 -44.049,-91.719 -56.473,-126.3c-42.969,-119.49 -78.431,-243.814 -104.442,-368.038c-107,-510.981 -96.253,-1047.391 -46.972,-1564.699c27.771,-28.369 67.236,-50.46 100.904,-71.189c78.481,-48.318 157.56,-92.815 240.16,-133.708c331.048,-163.904 709.732,-242.086 1076.541,-268.712Z" style="fill:#167298;"/></g><g><path d="M1615.74,14.765c99.343,-6.694 199.615,-9.833 299.174,-9.401c24.616,0.116 50.294,0.681 74.81,-1.495c11.71,-1.03 21.211,-6.561 32.854,-2.242c-9.484,13.437 -33.136,19.334 -47.487,26.094c-40.976,19.3 -80.441,44.713 -120.57,66.09c-107.066,56.988 -211.01,121.865 -314.421,185.198c-46.374,28.403 -85.573,75.906 -140.501,85.075c-30.014,3.604 -56.805,0.731 -84.892,8.87c-7.009,2.026 -20.862,-8.836 -31.359,-7.607c-199.3,23.536 -405.492,81.77 -586.837,167.226c-71.256,33.585 -158.407,64.28 -212.338,124.324c-22.473,38.169 -17.058,92.367 -19.5,135.153c-5.664,99.027 -6.843,198.453 -8.554,297.679c-5.465,319.487 1.993,642.612 79.727,954.011c25.828,103.495 54.181,206.94 93.197,306.299c16.892,43.019 40.112,83.165 56.955,125.935c5.963,15.098 15.347,22.473 16.759,39.647c-58.383,38.269 -142.677,24.433 -207.97,17.822c-23.752,-2.408 -47.686,-0.963 -71.322,-4.252c-30.944,-48.318 -48.367,-116.882 -65.293,-171.562c-36.06,-116.5 -64.097,-231.423 -87.35,-351.096c-68.997,-354.933 -77.169,-711.725 -63.582,-1072.056c5.365,-142.129 5.033,-285.122 18.005,-426.537c18.437,-26.841 52.802,-43.949 79.793,-61.14c54.546,-34.764 109.989,-66.705 167.841,-95.688c172.94,-86.669 350.581,-157.476 537.357,-208.85c55.36,-15.214 112.049,-24.715 167.509,-39.514c101.635,-27.124 210.96,-31.243 314.272,-51.739c32.572,-6.461 69.811,-13.371 103.113,-12.374c10.381,0.316 33.12,5.664 41.574,-2.658c7.126,-6.993 -15.43,-20.513 -20.961,-21.211Z" style="fill:#2394cb;"/></g><g><path d="M215.958,3108.985c130.303,28.718 265.091,41.109 396.025,68.997c232.801,49.563 467.845,114.491 695.149,185.032c70.874,22.008 143.508,38.817 213.584,63.316c77.003,26.908 152.078,50.46 229.347,73.299c8.238,2.442 12.756,-11.295 21.493,-10.132c7.175,0.947 11.112,9.368 18.105,9.634c12.075,0.482 22.357,-16.892 32.937,-21.493c42.072,-18.304 87.666,-33.02 129.024,-53.965c118.909,-60.243 239.628,-121.085 354.883,-188.454c95.34,-55.726 188.719,-115.736 286.7,-166.811c80.424,-41.923 166.246,-82.617 239.213,-136.93c13.338,-9.933 37.887,-23.818 47.637,-36.442c16.593,-21.493 -2.741,-42.753 -25.562,-38.684c-23.818,9.169 -48.45,29.017 -62.369,-3.671c38.667,-17.806 150.467,-52.453 123.892,31.675c-28.901,44.962 -86.935,74.876 -131.1,102.814c-94.841,59.994 -193.287,112.664 -291.268,167.326c-152.145,84.892 -304.522,167.293 -459.557,246.953c-74.777,38.435 -159.287,98.529 -244.528,107.93c-29.017,3.189 -60.493,-5.896 -88.746,-11.511c-62.336,-12.407 -122.563,-29.416 -183.919,-45.527c-215.079,-56.456 -429.743,-112.032 -642.629,-176.03c-158.672,-47.703 -323.474,-84.676 -486.515,-113.66c-39.996,-7.126 -79.677,-15.131 -119.839,-21.559c-11.245,-1.794 -34.166,-2.176 -42.753,-10.531c-5.049,-4.916 -6.926,-15.248 -9.202,-21.576Z" style="fill:#8c8d8d;"/></g><g><path d="M774.94,2602.771c118.161,-37.388 232.253,-89.726 359.301,-86.005c74.129,2.159 147.826,24.699 216.906,49.962c118.028,43.152 233.051,93.712 351.528,135.784c82.534,29.316 179.102,47.105 252.899,96.203c38.219,25.429 46.74,88.928 18.869,125.37c-30.429,39.78 -88.513,43.301 -134.389,41.425c-116.932,-4.75 -242.153,-43.019 -355.165,-71.937c-37.903,-9.7 -101.9,-36.209 -138.741,-17.905c5.714,24.034 40.079,33.917 60.027,43.335c63.715,30.03 128.692,56.058 193.403,83.846c77.119,33.153 171.03,89.742 257.483,86.437c29.233,-1.113 55.51,-15.829 82.284,-25.944c60.924,-23.004 117.547,-57.337 175.714,-86.354c109.574,-54.679 221.391,-106.452 335.316,-151.298c61.257,-24.134 168.256,-75.773 231.821,-93.463c6.976,5.93 37.571,0.814 35.395,5.797c-7.724,17.756 -138.01,58.632 -152.012,64.13c-87.55,34.415 -173.804,76.388 -259.277,115.77c-83.829,38.618 -170.1,70.957 -252.766,112.614c-57.951,29.2 -129.556,73 -195.396,76.155c-90.174,4.319 -191.809,-51.889 -273.379,-84.626c-68.282,-27.406 -134.622,-58.184 -201.077,-89.726c-31.542,-14.965 -68.548,-33.967 -57.885,-75.059c13.487,-15.298 32.555,-8.371 49.53,-5.398c32.738,5.714 65.725,7.292 98.329,14.849c106.518,24.682 214.614,43.335 320.6,70.774c31.99,8.272 64.396,8.737 97.1,11.826c9.833,0.93 30.08,5.132 39.299,0.266c14.783,-7.773 -3.638,-13.371 0.017,-24.051c3.289,-9.617 15.397,-13.271 20.53,-21.825c10.016,-16.676 6.926,-52.304 3.571,-70.923c-15.846,-22.639 -49.812,-30.23 -74.611,-38.983c-49.696,-17.54 -99.193,-36.109 -149.105,-53.002c-142.079,-48.068 -278.445,-112.514 -419.561,-163.14c-56.357,-20.231 -126.184,-48.251 -186.095,-52.453c-26.326,-1.844 -53.815,12.989 -79.428,17.656c-62.735,11.461 -123.244,23.835 -183.504,45.328c-20.563,7.341 -72.02,37.355 -87.533,14.567Z" style="fill:#999897;"/></g><g><path d="M1885.332,2077.124c-11.245,8.355 -25.429,12.623 -35.827,21.078c-6.976,5.681 -11.942,18.503 -20.114,22.406c-19.932,9.517 -44.265,6.278 -64.512,16.909c-9.285,8.504 -14.849,18.32 -15.281,31.077c-26.924,-28.236 -40.362,-67.219 -62.286,-99.16c-42.056,-61.24 -93.064,-115.869 -135.037,-177.209c-16.958,-24.782 -33.037,-49.796 -47.803,-75.873c-4.402,-7.79 -5.398,-21.825 -14.301,-22.722c-5.099,-0.515 -1.827,10.132 -1.993,15.248c-0.681,19.55 1.877,39.498 1.611,59.147c-0.698,52.57 0.731,105.189 0.166,157.792c-1.08,102.465 -1.412,204.798 -0.581,307.263c0.349,43.517 -7.109,93.529 0.1,136.266c-39.647,-5.979 -79.328,-11.311 -118.327,-21.194c-7.192,-29.814 -3.438,-76.388 -3.455,-107.033c-0.033,-70.624 5.232,-143.906 -2.192,-214.149c-11.361,-2.408 -22.373,-1.08 -33.153,2.857c-5.099,72.651 -3.04,146.697 -2.591,219.58c0.166,27.356 5.913,71.986 2.06,98.745c-35.711,-4.368 -76.072,-26.36 -111.833,-23.137c-5.033,-10.447 -2.475,-13.769 -2.624,-25.463c-0.432,-33.203 -0.947,-66.422 -1.229,-99.642c-0.997,-113.527 -3.455,-227.138 -3.106,-340.665c0.116,-36.01 1.362,-72.119 0.714,-108.096c-0.332,-18.121 4.036,-34.648 -7.375,-50.444c-17.59,53.4 -39.863,107.481 -61.904,159.37c-10.281,24.217 -18.669,51.54 -40.96,67.635c-21.725,5.913 -43.385,-6.229 -54.961,-24.483c-5.863,-18.985 2.392,-37.089 8.305,-55.161c13.039,-39.93 31.143,-79.095 47.637,-117.713c23.337,-54.646 43.285,-110.77 67.103,-165.2c10.049,-22.955 20.862,-49.098 46.74,-57.47c54.43,-17.606 117.414,-1.113 173.638,-4.916c26.21,-1.777 61.306,-8.687 84.444,7.043c21.427,14.567 32.273,40.212 44.481,62.037c21.825,39.049 43.268,78.215 67.253,116.035c22.523,35.495 48.5,70.741 66.987,108.528c6.362,13.005 18.37,27.688 22.141,40.411c22.556,27.09 59.961,117.995 103.744,137.346c31.226,13.803 71.737,1.727 104.325,2.957Z" style="fill:#1f1f61;"/></g><g><path d="M1251.456,3467.422c4.152,7.375 1.661,15.414 6.262,23.021c5.913,9.8 19.882,14.002 29.814,17.839c33.269,12.906 71.422,22.689 106.069,31.359c104.01,26.044 208.717,42.023 314.123,59.762c19.699,3.305 40.162,-0.764 59.928,2.575c38.833,6.544 73.83,34.166 110.405,47.686c14.666,5.431 36.342,17.108 47.936,1.03c15.763,6.345 29.283,16.51 46.657,17.573c11.311,15.281 36.774,2.94 50.278,-3.172c50.41,-22.755 100.107,-51.59 149.006,-77.85c22.39,-12.025 45.178,-23.087 65.459,-38.618c7.258,-5.548 20.314,-19.051 6.893,-23.785c34.266,-26.542 77.102,-45.893 114.092,-68.88c80.524,-50.045 158.39,-106.568 232.934,-165.067c255.407,-200.396 454.724,-454.79 605.025,-741.274c9.85,-15.065 8.654,-40.793 18.736,-58.234c26.36,-35.794 40.179,-83.198 57.752,-123.825c60.061,-138.857 84.876,-287.015 121.051,-432.749c1.993,2.392 8.321,9.202 12.025,6.212c5.996,-4.883 3.172,-17.473 3.638,-23.885c1.279,-17.424 10.232,-33.286 12.839,-50.427c12.059,-79.295 30.595,-160.981 33.219,-241.156c5,-151.68 18.586,-303.409 14.367,-455.787c-1.379,-49.48 -1.777,-98.861 -4.784,-148.291c-1.196,-19.699 -9.551,-51.673 -2.143,-70.093c20.031,-49.729 59.845,-19.317 97.549,-34.166c12.474,-4.916 18.985,-20.031 32.472,-21.227c50.361,9.933 111.202,19.384 156.546,44.032c-4.584,137.611 6.528,276.601 4.634,414.595c-2.508,182.491 -17.257,367.207 -45.56,547.455c-103.379,658.541 -442.698,1256.739 -972.448,1665.736c-168.638,130.22 -350.946,239.993 -542.207,333.34c-50.626,24.715 -101.9,46.856 -153.54,69.196c-20.264,8.77 -46.972,28.585 -69.096,29.615c-17.224,0.814 -35.046,-11.527 -50.095,-18.37c-38.335,-17.44 -77.451,-33.552 -116.035,-50.477c-152.477,-66.954 -299.29,-146.614 -438.695,-237.801c-100.356,-65.642 -198.851,-133.658 -289.823,-211.973c-24.533,-21.144 -80.125,-54.712 -82.002,-88.878c85.523,22.822 169.485,58.665 256.719,74.96Z" style="fill:#222b68;"/></g><g><path d="M1251.157,1445.507c4.119,-15.563 12.574,-30.396 22.672,-42.853c70.525,-87.134 201.824,-1.445 175.349,98.927c-34.415,130.469 -232.519,74.229 -198.021,-56.074Z" style="fill:#1f1f61;"/></g><g><path d="M1939.762,146.662c-3.438,8.803 9.318,-0.781 19.001,-5.564c8.189,-4.036 7.823,3.422 14.617,-1.478c29.997,-21.576 77.617,-41.69 112.664,-53.201c-2.658,16.095 14.085,17.374 18.703,31.824c5.764,18.022 6.744,54.297 -9.617,67.983c-12.54,10.481 -31.907,12.075 -45.859,21.493c-25.546,20.862 -54.297,44.663 -84.975,57.204c-265.572,121.45 -505.167,298.592 -749.928,455.886c-34.98,19.234 -85.723,47.155 -117.414,10.962c-9.451,-34.664 14.218,-59.795 39.714,-79.66c46.374,-36.143 94.974,-70.658 143.94,-103.13c214.863,-142.511 428.131,-286.401 659.156,-402.32Z" style="fill:#bab9b6;"/></g><g><path d="M1270.341,727.487c-8.288,51.606 59.396,-1.96 72.684,-10.514c57.901,-38.468 111.933,-82.5 170.515,-120.537c11.743,-7.624 23.685,-15.015 35.86,-22.058c25.33,-14.65 47.172,-34.199 72.468,-48.749c10.198,-5.88 23.536,-9.335 29.715,-20.38c6.594,-11.76 -11.776,-20.613 -16.809,-30.412c71.422,-64.047 170.582,-106.186 251.869,-156.513c19.068,-11.809 38.933,-22.423 58.533,-33.286c8.936,-4.95 23.752,-7.574 19.118,-20.114c30.678,-12.54 59.429,-36.342 84.975,-57.204c13.952,-9.418 33.319,-11.012 45.859,-21.493c16.361,-13.686 15.381,-49.962 9.617,-67.983c-4.617,-14.45 -21.36,-15.729 -18.703,-31.824c124.174,-90.872 297.247,-30.994 430.025,4.684c74.594,20.031 151.862,30.13 226.822,48.766c177.973,44.232 359.334,89.576 540.911,115.919c64.346,9.335 127.812,23.719 192.573,30.545c28.901,3.04 54.314,11.776 82.965,2.442c40.91,4.75 81.304,13.62 121.782,21.078c18.669,3.455 44.016,4.933 59.679,16.709c36.325,27.323 55.642,103.545 72.02,144.554c55.576,139.239 98.977,281.916 90.324,432.898c-15.131,-1.478 -32.239,-12.524 -46.491,-18.088c-38.784,-15.131 -77.667,-30.994 -117.597,-42.87c-107.448,-31.99 -218.135,-48.401 -330.334,-38.734c-180.763,15.563 -330.716,144.654 -513.821,151.298c-12.64,-6.959 -28.336,-4.103 -42.089,-6.86c-41.773,-8.405 -90.24,-14.334 -130.851,-26.825c-145.634,-44.813 -287.165,-103.495 -432.5,-150.351c-49.131,-15.846 -98.429,-29.432 -146.68,-47.487c-30.313,-11.361 -60.493,-22.024 -79.81,-49.215c-30.097,-90.656 74.843,-92.848 134.954,-88.696c116.368,8.022 228.749,46.158 344.933,52.154c41.541,2.126 86.038,11.162 124.241,-9.218c25.845,-35.927 -34.066,-60.609 -58.881,-71.256c-85.44,-36.691 -169.917,-70.575 -257.201,-102.282c-56.705,-20.579 -126.283,-45.793 -187.391,-41.773c-63.964,4.219 -131.516,39.813 -187.756,68.914c-98.296,50.859 -197.489,101.253 -296.716,150.019c-70.973,34.88 -142.096,69.512 -212.587,105.355c-26.825,13.653 -58.881,22.739 -83.779,39.614c-5.448,3.687 -22.822,27.173 -8.604,26.874c-23.719,15.53 -76.155,32.173 -104.375,22.921c-48.434,-15.862 -30.329,-78.115 0.532,-100.024Z" style="fill:#bab9b6;"/></g><g><path d="M1251.456,3467.422c107.249,21.526 211.641,61.24 317.976,87.5c67.535,16.676 136.515,16.41 204.233,30.097c51.39,10.398 106.634,40.362 152.327,65.675c-11.594,16.078 -33.269,4.402 -47.936,-1.03c-36.575,-13.52 -71.571,-41.142 -110.405,-47.686c-19.766,-3.339 -40.229,0.731 -59.928,-2.575c-105.405,-17.739 -210.113,-33.718 -314.123,-59.762c-34.648,-8.67 -72.8,-18.453 -106.069,-31.359c-9.933,-3.837 -23.901,-8.039 -29.814,-17.839c-4.601,-7.607 -2.109,-15.646 -6.262,-23.021Z" style="fill:#131542;"/></g><g><path d="M1634.774,474.837c5.033,9.8 23.403,18.653 16.809,30.412c-6.179,11.045 -19.516,14.5 -29.715,20.38c-25.297,14.55 -47.138,34.1 -72.468,48.749c-72.933,42.205 -136.864,96.419 -206.375,142.594c-13.288,8.554 -80.972,62.12 -72.684,10.514c27.921,-37.04 76.023,-61.522 113.876,-87.168c55.609,-37.704 111.152,-75.674 167.891,-111.667c27.472,-17.424 52.57,-41.009 82.666,-53.815Z" style="fill:#bab9b6;"/></g><g><path d="M2894.902,955.621c-133.475,3.471 -246.687,-40.312 -370.679,-83.995c-111.219,-39.199 -227.221,-65.376 -337.858,-105.422c-68.648,-24.848 -188.653,-56.805 -144.803,-153.49c5.531,-12.192 14.7,-22.905 25.346,-30.977c47.853,-36.226 129.057,-17.988 182.923,-9.434c129.074,20.48 272.316,57.519 402.685,46.856c9.999,-20.513 -53.483,-44.63 -66.754,-50.41c-86.321,-37.505 -174.85,-69.727 -262.848,-102.831c-49.68,-18.686 -107,-35.595 -160.832,-30.745c-76.853,6.926 -158.473,59.513 -226.29,93.812c-126.101,63.748 -251.321,129.174 -378.95,189.782c-58.549,27.805 -119.54,70.06 -182.657,85.822c-14.218,0.299 3.156,-23.187 8.604,-26.874c24.898,-16.875 56.955,-25.961 83.779,-39.614c70.492,-35.844 141.614,-70.475 212.587,-105.355c99.226,-48.766 198.419,-99.16 296.716,-150.019c56.24,-29.1 123.792,-64.695 187.756,-68.914c61.107,-4.02 130.685,21.194 187.391,41.773c87.284,31.708 171.761,65.592 257.201,102.282c24.815,10.647 84.726,35.329 58.881,71.256c-38.202,20.38 -82.7,11.344 -124.241,9.218c-116.185,-5.996 -228.566,-44.132 -344.933,-52.154c-60.11,-4.152 -165.051,-1.96 -134.954,88.696c19.317,27.19 49.497,37.853 79.81,49.215c48.251,18.055 97.549,31.641 146.68,47.487c145.335,46.856 286.866,105.538 432.5,150.351c40.611,12.49 89.078,18.42 130.851,26.825c13.753,2.757 29.449,-0.1 42.089,6.86Z" style="fill:#9c9b99;"/></g><g><path d="M1564.947,1249.247c4.468,-57.137 20.363,-111.65 46.507,-162.493c77.783,-151.231 261.088,-247.601 430.307,-222.105c213.717,32.206 392.919,229.745 376.891,449.79c-4.916,67.535 -20.629,132.662 -53.998,192.074c-27.622,49.148 -62.286,91.752 -106.75,126.283c-202.921,157.593 -504.636,100.721 -637.364,-121.118c-45.444,-75.956 -62.419,-175.182 -55.593,-262.433Zm699.484,-242.784c-20.762,-40.976 -67.253,-67.568 -108.478,-83.995c-12.108,-4.833 -28.535,-14.218 -41.973,-12.142c-37.687,5.797 23.619,26.027 8.77,28.303c-75.043,-14.766 -148.507,-21.626 -223.865,-0.83c-153.291,42.321 -269.027,181.561 -272.582,343.173c-1.445,65.891 14.799,129.306 38.95,190.098c0.316,11.461 -10.564,13.936 -11.909,25.579c-2.774,24.001 16.759,47.138 35.096,59.695c45.344,79.976 147.195,94.061 228.965,105.771c44.248,6.345 92.765,10.813 136.98,1.81c152.71,-31.093 281.252,-161.264 304.273,-316.431c8.986,-60.592 0.033,-123.692 -16.394,-181.976c-12.192,-43.318 -37.222,-76.537 -55.958,-116.284c-7.159,-15.148 -8.604,-31.259 -21.875,-42.77Z" style="fill:#236b00;"/></g><g><path d="M1885.332,2077.124c25.762,7.491 40.395,35.246 54.878,56.24c28.037,40.661 57.802,80.192 89.011,118.46c9.202,11.278 22.589,33.884 34.631,40.694c12.806,-15.912 24.217,-38.036 41.973,-49.148c16.643,-10.414 73.132,-15.198 92.217,-9.982c18.005,32.123 39.448,64.03 59.014,95.406c9.119,14.633 23.254,33.9 23.602,51.556c-27.838,2.508 -50.709,-23.287 -62.718,-46.158c-5.315,-10.132 -7.391,-22.307 -18.802,-26.077c4.95,85.324 -4.833,169.435 -2.691,254.693c-14.284,2.99 -29.781,1.379 -44.115,-0.465c-5.581,-27.074 -4.053,-53.483 -4.169,-81.055c-0.033,-7.441 3.422,-25.529 0.233,-31.708c-5,-9.65 -16.178,-3.986 -23.22,-1.744c-1.163,29.333 0.731,58.117 1.096,87.417c0.116,8.936 2.209,27.09 -4.617,33.153c-10.464,1.661 -19.5,-1.86 -29.299,-5.083c-19.45,-28.22 -6.577,-73.282 -7.74,-105.588c-0.415,-11.859 -8.205,-21.642 -10.115,-33.17c-4.119,-25.147 1.362,-53.251 6.876,-77.75c-1.894,-4.069 -21.327,-6.063 -27.389,-9.252c-43.451,-38.468 -77.385,-87.932 -109.342,-135.734c-10.082,-15.082 -21.576,-51.39 -34.515,-32.605c11.079,98.329 -5.514,190.546 -5.282,288.377c0.05,22.938 12.358,88.912 -9.301,103.096c-16.394,1.761 -36.126,0.432 -49.547,-9.816c-4.219,-64.196 1.246,-128.111 -0.698,-191.908c-2.226,-0.183 -19.068,-1.511 -19.201,-1.428c-5.083,2.873 -3.106,30.246 -3.438,36.259c-2.226,39.431 -2.475,79.461 -1.761,118.909c0.183,10.564 0.764,38.368 -8.953,44.531c-13.869,3.422 -31.309,-0.714 -45.295,-2.525c-18.719,-20.795 -8.255,-76.604 -8.338,-103.329c-0.183,-61.173 2.807,-122.214 3.073,-183.305c0.133,-32.904 2.491,-69.229 -11.793,-99.492c0.432,-12.756 5.996,-22.573 15.281,-31.077c20.247,-10.63 44.58,-7.391 64.512,-16.909c8.172,-3.903 13.138,-16.726 20.114,-22.406c10.398,-8.454 24.582,-12.723 35.827,-21.078Z" style="fill:#1f1f61;"/></g><g><path d="M1790.54,1967.882c6.245,-11.926 14.65,-23.935 26.874,-30.495c10.663,-5.714 23.768,-6.096 35.495,-4.651c100.306,12.358 19.018,170.648 -50.693,105.804c-17.972,-20.812 -20.098,-44.946 -11.677,-70.658Z" style="fill:#1a1654;"/></g><g><path d="M2122.751,938.629c29.299,26.742 109.757,46.441 141.681,67.834c0.847,0.565 -17.025,33.9 -18.105,34.116c-35.046,-15.381 -89.028,-60.227 -124.041,-76.704c-79.494,-37.438 -189.616,-27.688 -268.213,6.212c-187.44,80.839 -252.916,298.941 -173.139,478.808c15.231,34.365 27.821,72.684 56.357,98.512c80.524,72.867 195.347,117.198 304.306,103.678c141.531,-17.573 265.157,-142.86 294.207,-279.907c18.536,-87.35 5.83,-185.348 -38.319,-263.23c-14.002,-24.715 -36.857,-43.185 -51.158,-67.369c2.89,-3.422 17.307,-31.21 18.105,-34.116c13.271,11.511 14.716,27.622 21.875,42.77c18.736,39.747 43.767,72.966 55.958,116.284c16.427,58.283 25.38,121.384 16.394,181.976c-23.021,155.168 -151.563,285.338 -304.273,316.431c-44.215,9.002 -92.732,4.534 -136.98,-1.81c-81.77,-11.71 -183.62,-25.795 -228.965,-105.771c25.762,-23.901 -3.156,-65.044 -23.187,-85.274c-24.15,-60.791 -40.395,-124.207 -38.95,-190.098c3.554,-161.612 119.291,-300.851 272.582,-343.173c75.358,-20.795 148.823,-13.936 223.865,0.83Z" style="fill:#7eaa68;"/></g><g><path d="M2222.708,1021.977c6.86,7.657 15.513,12.391 23.619,18.603c14.301,24.184 37.156,42.654 51.158,67.369c44.149,77.883 56.855,175.88 38.319,263.23c-29.05,137.047 -152.676,262.333 -294.207,279.907c-108.96,13.52 -223.782,-30.811 -304.306,-103.678c-28.535,-25.828 -41.126,-64.147 -56.357,-98.512c-79.776,-179.866 -14.301,-397.968 173.139,-478.808c78.597,-33.9 188.719,-43.65 268.213,-6.212c35.013,16.477 65.376,42.72 100.422,58.101Zm-338.323,462.198c27.107,11.477 56.506,19.051 82.965,31.592c2.309,17.407 -0.448,34.532 -0.233,51.988c12.424,1.661 30.811,2.292 42.488,-2.674c4.285,-14.284 -2.292,-34.814 -3.222,-49.58c10.962,-10.182 29.748,-10.331 43.6,-16.062c20.729,-8.554 37.986,-21.227 52.221,-38.601c76.189,-93.031 -9.982,-195.28 -105.173,-223.284c-12.142,-19.267 1.478,-71.189 5.764,-92.649c33.851,-9.617 62.668,39.033 96.037,26.509c9.916,-11.843 19.184,-29.117 15.447,-44.763c-19.467,-35.794 -62.735,-37.787 -96.386,-51.656c-8.936,-13.803 -0.88,-43.999 -9.135,-53.251c-13.171,1.744 -26.277,3.139 -39.166,6.528c-4.584,18.237 -3.355,37.488 -7.74,55.526c-17.922,1.545 -37.172,-2.242 -53.732,6.561c-55.559,29.499 -73.498,110.155 -40.744,163.091c25.612,41.408 64.545,55.676 105.588,77.385c0.615,27.09 5.199,85.723 -15.347,106.418c-27.373,-3.04 -54.829,-32.555 -76.488,-48.334c-19.865,2.707 -37.172,13.67 -44.564,32.804c-0.149,13.736 4.9,21.609 12.341,32.655c-32.073,-2.408 -20.231,49.248 5.747,53.882c11.245,2.01 19.749,-20.613 29.731,-24.084Z" style="fill:#59993b;"/></g><g><path d="M1848.907,1454.377c11.427,10.464 24.018,19.467 35.478,29.798c-9.982,3.471 -18.487,26.094 -29.731,24.084c-25.978,-4.634 -37.82,-56.29 -5.747,-53.882Z" style="fill:#59993b;"/></g><g><path d="M2063.338,3260.797c64.562,-22.224 666.696,-390.693 732.903,-405.276c26.625,20.48 -555.345,345.482 -574.978,352.059c-63.848,21.343 -134.788,52.088 -195.828,82.301c-32.073,15.895 -68.033,36.292 -102.366,46.324c-5.315,1.561 -34.963,7.109 -34.831,1.81c56.407,-30.595 116.899,-51.025 175.099,-77.218Z" style="fill:#8c8d8d;"/></g><g><path d="M2106.257,2167.83c2.907,-9.102 6.411,-15.48 13.371,-22.224c40.827,-39.697 101.303,30.661 60.891,62.419c-7.79,6.112 -19.018,8.122 -28.386,10.215c-12.291,2.741 -24.018,2.674 -36.043,-1.113c-9.135,-16.66 -11.228,-30.313 -9.833,-49.298Z" style="fill:#171051;"/></g><g><path d="M1209.018,594.377c28.851,-14.284 133.127,-92.931 270.256,-176.495c72.834,-44.381 148.507,-103.246 229.463,-150.384c225.958,-131.599 457.099,-243.98 505.416,-250.125c42.371,-5.398 83.015,6.744 124.589,12.49c98.745,13.67 196.542,38.252 293.875,59.479c233.399,50.909 465.055,109.358 699.351,155.915c74.245,14.766 152.145,36.824 227.37,43.517c-28.652,9.335 -54.065,0.598 -82.965,-2.442c-64.761,-6.827 -128.227,-21.211 -192.573,-30.545c-181.577,-26.343 -362.938,-71.687 -540.911,-115.919c-74.96,-18.636 -152.228,-28.735 -226.822,-48.766c-132.778,-35.678 -305.851,-95.556 -430.025,-4.684c-35.046,11.511 -82.666,31.625 -112.664,53.201c-2.94,2.126 -175.614,93.961 -358.902,209.614c-239.395,151.065 -504.42,335.316 -509.054,337.609c-4.784,2.359 16.958,-24.682 43.285,-45.677c26.958,-21.493 58.582,-42.338 60.31,-46.79Z" style="fill:#979899;"/></g><g><path d="M1938.233,1165.268c7.956,-14.185 12.557,-20.081 28.768,-24.15c7.89,15.563 7.557,61.871 4.667,79.046c-15.181,-1.993 -27.738,-4.95 -35.013,-19.865c-3.123,-12.524 -1.943,-22.689 1.578,-35.03Z" style="fill:#59993b;"/></g><g><path d="M1972.649,3668.266c28.868,-9.667 55.177,-29.117 82.534,-42.571c64.329,-31.641 125.818,-67.485 189.101,-100.854c13.421,4.734 0.365,18.237 -6.893,23.785c-20.28,15.53 -43.069,26.592 -65.459,38.618c-48.899,26.26 -98.595,55.094 -149.006,77.85c-13.504,6.112 -38.966,18.453 -50.278,3.172Z" style="fill:#131542;"/></g><g><path d="M2010.419,1335.717c43.517,7.026 57.586,91.054 7.441,91.104c-8.205,-28.436 -7.109,-61.622 -7.441,-91.104Z" style="fill:#59993b;"/></g><g><path d="M2421.194,3032.065c-46.241,31.774 -183.819,113.012 -233.3,139.571c-3.953,-8.039 -13.852,-12.789 -9.318,-23.852c4.451,-10.83 9.667,-17.39 18.703,-22.722c9.683,-5.73 33.17,-15.862 58.566,-31.143c58.267,-35.046 137.894,-85.806 164.486,-91.436c13.005,-2.774 -13.57,35.977 0.864,29.582Z" style="fill:#b8b7b4;"/></g><g><path d="M2277.918,2076.808c35.644,-40.71 83.115,-73.431 122.696,-110.521c82.567,-77.385 163.572,-156.546 245.524,-234.413c20.43,5.813 39.78,23.901 57.436,35.81c45.378,30.595 89.061,67.917 138.027,92.665c31.774,-17.723 63.432,-63.183 90.274,-88.978c62.153,-59.728 122.845,-120.57 174.867,-189.467c20.131,-26.659 46.574,-55.775 59.978,-86.42c-34.216,9.501 -96.004,-9.069 -120.636,-33.419c41.325,-27.805 94.111,-42.305 140.252,-60.692c35.096,-13.985 67.884,-32.804 103.528,-45.162c8.969,42.338 8.205,89.094 12.607,132.28c4.617,45.527 15.43,94.061 12.823,139.754c-27.373,3.953 -60.625,-40.544 -81.487,-54.829c-40.029,27.871 -71.355,91.984 -102.349,130.336c-59.097,73.083 -126.898,140.103 -198.021,201.359c-25.363,21.858 -51.141,52.387 -80.408,68.648c-27.373,-9.019 -50.311,-31.525 -73.049,-48.567c-41.275,-30.927 -83.945,-60.625 -127.197,-88.646c-60.742,60.343 -128.177,113.56 -192.971,169.369c-54.43,46.873 -107.681,98.562 -164.585,142.013c-9.252,-20.181 -17.125,-40.362 -23.038,-61.771c1.91,-3.123 3.82,-6.245 5.73,-9.351Z" style="fill:#59993b;"/></g><g><path d="M2434.166,2172.082c2.741,9.169 10.032,14.434 14.799,22.39c7.956,13.271 4.119,32.439 8.737,46.939c9.069,28.469 24.682,42.371 25.164,74.644c0.698,46.673 -1.08,94.858 -6.179,141.249c-2.658,24.167 -8.637,64.512 6.744,85.872c-1.462,18.802 -18.736,10.979 -36.94,10.381c-40.362,-1.312 -81.304,-1.03 -121.649,-0.149c-10.614,-21.377 -4.468,-57.652 -4.451,-81.138c0.066,-51.174 -0.399,-102.332 -0.498,-153.507c-0.033,-22.822 -5.298,-53.002 3.405,-74.146c38.717,-21.626 72.618,-50.377 110.87,-72.535Zm-90.34,87.101c10.996,69.512 10.713,142.461 7.474,213.268c-0.664,14.401 -6.146,59.014 15.912,59.446c-1.943,-68.15 -1.927,-136.565 -1.993,-204.814c-0.017,-20.264 10.531,-58.632 1.329,-76.438c-2.143,-4.152 -18.52,5.681 -22.722,8.537Z" style="fill:#2b8dbc;"/></g><g><path d="M2343.826,2259.183c4.202,-2.857 20.579,-12.69 22.722,-8.537c9.202,17.806 -1.345,56.174 -1.329,76.438c0.066,68.249 0.05,136.665 1.993,204.814c-22.058,-0.432 -16.576,-45.045 -15.912,-59.446c3.239,-70.807 3.521,-143.757 -7.474,-213.268Z" style="fill:#4db4df;"/></g><g><path d="M2387.559,3056.515c-8.803,4.916 -17.424,9.933 -25.728,15.68c7.491,-7.607 13.437,-31.641 25.728,-15.68Z" style="fill:#8c9293;"/></g><g><path d="M2668.611,2871.997c-26.326,23.254 -60.393,40.179 -89.36,60.26c-57.818,40.063 -115.969,77.983 -175.98,114.922c5.182,-8.056 -14.7,-19.998 -8.421,-31.625c8.022,-14.899 31.874,-21.177 45.66,-28.967c30.246,-17.091 59.529,-36.193 88.496,-55.36c38.9,-23.536 76.853,-50.66 115.77,-73.299c10.331,-6.013 31.907,-0.548 23.835,14.068Z" style="fill:#b8b7b4;"/></g><g><path d="M2483.43,2543.175c-15.381,-21.36 -9.401,-61.705 -6.744,-85.872c5.099,-46.391 6.876,-94.576 6.179,-141.249c-0.482,-32.273 -16.095,-46.175 -25.164,-74.644c-4.617,-14.5 -0.781,-33.668 -8.737,-46.939c-4.767,-7.956 -12.059,-13.221 -14.799,-22.39c12.922,-12.158 30.279,-25.662 48.517,-25.247c-3.272,131.532 -0.199,264.675 0.747,396.34Z" style="fill:#3f8ca0;"/></g><g><path d="M2620.809,2006.3c-15.746,47.354 -3.837,120.653 -3.289,171.113c0.814,73.88 2.691,148.142 -0.066,221.972c-1.545,41.126 -10.83,95.938 -0.847,135.685c10.464,12.275 31.326,2.857 36.99,17.855c-30.213,0.997 -61.605,3.023 -91.503,-2.491c-8.321,-50.062 -0.88,-106.136 -0.847,-156.928c0.083,-128.326 6.046,-260.872 -6.66,-388.584c22.656,-2.757 43.667,0.382 66.223,1.379Z" style="fill:#4198c5;"/></g><g><path d="M2620.809,2006.3c30.778,-1.91 77.816,-6.561 106.933,3.936c-7.275,104.043 2.458,212.205 2.475,316.697c0.017,72.618 -10.746,155.832 1.545,227.32c-19.799,-7.209 -56.506,-1.511 -78.165,-1.329c-5.664,-14.999 -26.526,-5.581 -36.99,-17.855c-9.982,-39.747 -0.698,-94.559 0.847,-135.685c2.757,-73.83 0.88,-148.092 0.066,-221.972c-0.548,-50.46 -12.457,-123.759 3.289,-171.113Z" style="fill:#156ea5;"/></g><g><path d="M2867.596,2071.676c-10.132,35.495 -2.923,75.225 -5.88,111.717c-6.428,79.544 -4.617,161.297 -2.923,241.056c0.681,32.638 1.395,65.259 0.914,97.898c-0.133,8.87 0.83,25.097 -6.544,31.492c-15.63,0.316 -31.243,0.997 -46.856,1.113c-13.985,-30.346 2.392,-94.111 2.143,-128.26c-0.864,-120.038 5,-241.306 -0.631,-361.145c19.948,-0.83 40.395,1.428 59.778,6.129Z" style="fill:#3d84b5;"/></g><g><path d="M2867.596,2071.676c38.468,-15.032 69.512,-35.379 104.359,-57.038c6.195,5.73 2.259,22.938 2.126,31.426c-0.548,35.495 -1.113,71.023 -0.83,106.535c0.731,91.337 0.963,182.707 0.664,274.06c-0.133,41.342 -5.199,85.374 -1.096,126.433c-39.614,-2.79 -79.976,1.146 -119.656,0.747c7.375,-6.395 6.411,-22.622 6.544,-31.492c0.482,-32.638 -0.233,-65.259 -0.914,-97.898c-1.694,-79.76 -3.505,-161.513 2.923,-241.056c2.957,-36.491 -4.252,-76.222 5.88,-111.717Z" style="fill:#12598a;"/></g><g><path d="M3082.708,1866.629c4.9,9.916 18.171,12.906 22.988,22.772c5.88,12.075 3.222,31.492 3.272,44.564c0.1,31.891 0.399,63.781 0.432,95.688c0.133,115.72 -0.698,231.523 -3.123,347.226c-0.93,44.265 -3.189,88.48 -1.894,132.778c0.448,15.414 -3.671,35.345 14.733,40.478c-16.277,7.574 -53.334,7.142 -70.774,3.089c0.149,-219.813 12.192,-442.183 -1.81,-661.564c12.64,-7.674 24.101,-16.543 36.176,-25.031Z" style="fill:#3179b0;"/></g><g><path d="M3215.07,2491.386c-10.082,17.44 -8.886,43.169 -18.736,58.234c-22.788,9.484 -53.035,0.963 -77.218,0.515c-18.404,-5.132 -14.284,-25.064 -14.733,-40.478c-1.296,-44.298 0.963,-88.513 1.894,-132.778c2.425,-115.703 3.255,-231.506 3.123,-347.226c-0.033,-31.907 -0.332,-63.798 -0.432,-95.688c-0.05,-13.072 2.608,-32.489 -3.272,-44.564c-4.817,-9.866 -18.088,-12.856 -22.988,-22.772c40.478,-38.269 76.504,-88.679 121.948,-120.769c8.405,165.632 4.933,332.161 2.525,498.025c-0.93,63.532 -5.365,127.596 -3.687,191.078c0.282,10.447 0.482,64.18 11.577,56.423Z" style="fill:#165086;"/></g><g><path d="M3593.057,895.992c-13.487,1.196 -19.998,16.311 -32.472,21.227c-37.704,14.849 -77.517,-15.563 -97.549,34.166c-7.408,18.42 0.947,50.394 2.143,70.093c3.006,49.43 3.405,98.811 4.784,148.291c4.219,152.377 -9.368,304.107 -14.367,455.787c-2.624,80.175 -21.161,161.861 -33.219,241.156c-2.608,17.141 -11.56,33.003 -12.839,50.427c-0.465,6.411 2.359,19.001 -3.638,23.885c-3.704,2.99 -10.032,-3.82 -12.025,-6.212c9.318,-97.648 26.708,-195.529 38.053,-293.161c17.955,-154.52 19.251,-313.624 17.241,-468.991c-1.196,-91.984 3.853,-193.553 -17.307,-283.527c52.985,-10.032 108.81,-4.103 161.197,6.86Z" style="fill:#0f1245;"/></g><g><path d="M844.657,1669.754c2.777,-1.366 60.409,-6.477 99.871,1.154c27.144,5.249 38.396,21.392 46.705,29.316c36.817,35.137 45.039,164.786 73.189,206.94c3.834,5.738 8.487,10.456 13.556,14.629c16.194,13.33 23.391,29.073 34.999,47.017c2.638,13.129 -0.722,32.854 -13.734,38.198c-45.281,1.369 -77.18,-73.565 -89.492,-114.337c-4.868,-16.118 -12.732,-63.07 -22.518,-76.781c-2.613,-3.67 -3.658,-12.637 -7.732,-11.093c-2.49,0.946 -0.492,5.59 -0.732,8.386c8.289,36.083 10.574,73.709 17.946,110.154c10.491,51.83 35.642,154.552 35.642,154.552c0,0 9.055,42.862 14.195,64.15c1.879,7.815 5.602,19.086 0.667,25.787c-19.114,3.781 -38.458,3.663 -57.672,6.35c-6.641,19.555 -3.926,48.727 -4.769,69.632c-1.761,43.779 -5.196,87.516 -6.493,131.315c-0.545,18.444 2.426,62.899 -16.676,72.241c-33.918,6.929 -37.131,-33.325 -39.114,-59.89c-3.453,-46.535 -6.389,-93.206 -11.075,-139.581c-2.38,-23.495 -1.63,-50.599 -10.576,-72.538c-3.61,-4.005 -9.796,-0.826 -13.824,1.872c-11.206,65.025 -15.141,132.003 -20.928,197.924c-1.955,22.343 0.99,57.134 -20.67,69.575c-30.835,9.094 -30.927,-39.998 -31.853,-58.729c-3.538,-71.177 -5.556,-143.567 -12.418,-214.441c-13.761,-7.942 -45.318,-4.201 -60.986,-3.305c-4.122,-23.739 9.722,-58.364 14.724,-81.485c14.057,-64.977 28.974,-129.57 44.298,-194.224c4.928,-20.778 9.011,-41.849 12.983,-62.863c0.981,-5.168 6.057,-19.949 0.565,-22.687c-24.178,56.317 -52.487,110.951 -77.914,166.766c-7.806,17.126 -16.63,52.861 -32.753,62.646c-10.641,0.826 -22.232,-4.074 -28.233,-13.72c-1.823,-8.395 -0.722,-16.249 1.306,-24.508c13.694,-46.405 37.316,-88.993 54.281,-134.12c18.438,-49.041 32.799,-103.962 58.431,-149.335c13.51,-23.906 33.974,-33.718 56.799,-44.967Z" style="fill:#1f1f61;"/></g><g><path d="M894.735,1653.161c-29.136,-2.308 -50.639,-19.155 -60.704,-35.435c-3.834,1.803 -22.781,38.613 -25.383,42.158c-36.702,50.032 -103.825,17.468 -44.684,-21.468c46.892,-30.872 38.008,-80.55 40.87,-103.708c6.583,-53.138 52.31,-91.248 101.554,-90.47c46.447,0.729 87.034,38.512 96.647,86.433c5.667,28.316 2.304,61.298 14.297,87.754c10.918,24.113 31.52,27.596 47.4,44.545c-17.26,46.357 -67.606,26.691 -88.525,-4.517c-7.49,-11.181 -6.657,-26.239 -13.122,-36.21c-15.525,8.933 -21.341,34.641 -68.351,30.918Z" style="fill:#1f1f61;"/></g></svg>